<svg xmlns="http://www.w3.org/2000/svg" width="250" height="250" viewBox="0 0 250 250">
<!-- SVG created with Arrow, by QuiverAI (https://quiver.ai) -->
  <path d="m30.77 13v125.3c0 29.87 17.86 67.96 74.62 91.59 6.65 2.83 18.86 5.81 18.86 5.81s10.73-2.68 19.07-6.18c49.06-20.95 74.41-50.52 74.41-92.72v-123.8h-187zm179.6 123.9c0 36.51-22.05 67-66.02 84.67-6.92 2.83-17.62 5.3-20.18 5.57-2.41-0.27-13.4-3.25-19.71-5.87-35.33-14.29-66.6-38.58-66.6-85.21l-0.05-115.6h172.6v116.4z" fill="#192248"/>
  <path d="m97.67 38.84-2.66 9.45h-0.37c0-3.48-1.15-5.41-5.88-5.41h-10.14v20.65h10.39c3.43 0 4.78-0.7 6.18-2.1l0.32 0.16-1.15 9.6h-0.42c-0.61-3.03-2.01-4.13-5.8-4.13h-9.52v20.59c2.57 2.23 6.83 4.31 9.87 4.31 4.57 0 7.62-2.83 9.44-6.16l0.42 0.15-1.51 8.86h-30.58v-0.42c3.59-0.76 4.79-2.27 4.79-6.36v-42.32c0-2.98-0.99-4.59-4.74-5.69v-0.41h25.52c2.52 0 4.14-0.16 5.48-0.77h0.36z" fill="#192248"/>
  <path d="m186.1 49.06h-0.42c-0.83-3.83-2.6-5.86-7.01-5.86h-10.19v46.1c0 3.54 1.2 4.46 4.01 5.24v0.31h-14.98v-0.31c2.62-0.78 3.77-2.22 3.77-5.75v-45.59h-9.2c-5.04 0-6.6 1.56-8.16 5.09h-0.42l-1.15-9.45h0.42c0.99 0.56 2.34 0.87 5.71 0.87h32.01c2.17 0 4.45-0.26 5.34-0.87h0.32l-0.05 10.22z" fill="#192248"/>
  <path d="m104.2 131.6h-0.42c-0.83-3.83-2.6-5.49-7.01-5.49h-11.31v46.58c0 3.53 1.2 4.46 4.01 5.23v0.31h-14.98v-0.31c2.62-0.77 3.77-2.22 3.77-5.75v-46.06h-10.35c-4.46 0-5.76 1.5-7.06 5.18h-0.42l-1.72-8.91h0.42c0.99 0.56 2.34 0.87 5.71 0.87h34.04c2.18 0 3.74-0.31 4.95-0.87h0.41l-0.04 9.22z" fill="#192248"/>
  <path d="m189.8 174.2c-5.41 2.88-11.13 4.33-19.01 4.33-18.39 0-30.77-10.3-30.77-28.87 0-16.06 12.02-27.22 29.73-27.22 5.67 0 12.43 1.08 18.95 2.16l-0.52 12.16h-0.52c-2.86-7.76-9.38-11.85-17.65-11.85-13.86 0-23.59 9.92-23.59 24.07 0 13.8 11.25 26.31 25.52 26.31 6.67 0 12.97-3.88 15.82-8.46l0.52 0.11 1.52 7.26z" fill="#192248"/>
  <path d="m124.1 51.74 1.82 56.45 54.96 1.35-55.07 1.45-1.98 56.13-1.25-56.29-55.18-1.29 55.23-1.5 1.47-56.3z" fill="#922527"/>
</svg>